<svg version="1.1" viewBox="0 0 24 24" xmlns="http://www.w3.org/2000/svg">
 <path d="m6.9 4.2c-3.7 0-5.6 2-5.6 6v3.5c0 4 1.8 6 5.5 6 1.7 0 3-0.42 4-1.3 0.97-0.88 1.5-2.1 1.5-3.8v-0.15h-2.8v0.18c0 0.77-0.22 1.4-0.66 1.8s-1.1 0.66-1.9 0.66c-0.92 0-1.6-0.26-2-0.84-0.44-0.55-0.64-1.5-0.64-2.7v-3.3c0-1.3 0.2-2.2 0.62-2.8s1.1-0.86 2-0.86c0.81 0 1.5 0.24 1.9 0.68 0.44 0.46 0.68 1.1 0.68 1.8v0.13h2.9v-0.15c0-1.6-0.51-2.8-1.5-3.7-0.99-0.88-2.3-1.3-4-1.3zm11 3.8c-1.5 0-2.6 0.4-3.4 1.2-0.84 0.79-1.2 2-1.2 3.6v2.1c0 1.6 0.4 2.9 1.2 3.6 0.84 0.79 2 1.2 3.4 1.2 1.4 0 2.5-0.35 3.3-1.1 0.79-0.73 1.2-1.7 1.2-3v-0.15h-2.6v0.13c0 0.53-0.18 0.95-0.51 1.2-0.33 0.31-0.77 0.44-1.3 0.44-0.64 0-1.1-0.18-1.5-0.55-0.35-0.35-0.51-0.97-0.51-1.8v-2.1c0-1.6 0.66-2.4 2-2.4 0.57 0 1 0.15 1.3 0.46 0.33 0.31 0.51 0.75 0.51 1.3v0.13h2.6v-0.22c0-1.3-0.4-2.3-1.2-3-0.79-0.7-1.9-1.1-3.3-1.1z"/>
</svg>
