<svg version="1.1" viewBox="0 0 24 24" xmlns="http://www.w3.org/2000/svg">
 <path d="m15 2a1.5 1.5 0 0 0-1.5 1.5v3.4l-3.1-1.7a1.5 1.5 0 0 0-2 0.57 1.5 1.5 0 0 0 0.58 2l3 1.7-3 1.7a1.5 1.5 0 0 0-0.58 2 1.5 1.5 0 0 0 2 0.58l3.1-1.7v3.4a1.5 1.5 0 0 0 1.5 1.5 1.5 1.5 0 0 0 1.5-1.5v-3.4l3.1 1.7a1.5 1.5 0 0 0 2-0.58 1.5 1.5 0 0 0-0.58-2l-3-1.7 3-1.7a1.5 1.5 0 0 0 0.58-2 1.5 1.5 0 0 0-2-0.57l-3.1 1.7v-3.4a1.5 1.5 0 0 0-1.5-1.5zm-9.7 13c-1.8 0-3.3 1.5-3.3 3.3s1.5 3.3 3.3 3.3c1.8 0 3.3-1.5 3.3-3.3s-1.5-3.3-3.3-3.3z"/>
</svg>
